<?xml version="1.0" standalone="no"?>
<!DOCTYPE svg PUBLIC "-//W3C//DTD SVG 20010904//EN"
 "http://www.w3.org/TR/2001/REC-SVG-20010904/DTD/svg10.dtd">
<svg version="1.0" xmlns="http://www.w3.org/2000/svg"
 width="512.000000pt" height="512.000000pt" viewBox="0 0 512.000000 512.000000"
 preserveAspectRatio="xMidYMid meet">

<g transform="translate(0.000000,512.000000) scale(0.100000,-0.100000)"
fill="#B5C8CF" stroke="none">
<path d="M2810 4305 c-472 -65 -891 -309 -1175 -686 -70 -93 -176 -270 -190
-316 l-6 -23 -535 0 -535 0 -24 -25 c-33 -32 -33 -78 0 -110 l24 -25 568 0
c494 0 571 2 590 15 12 9 44 62 72 118 223 461 635 777 1145 879 145 29 431
32 571 5 668 -129 1160 -614 1296 -1277 34 -166 34 -434 0 -600 -135 -656
-622 -1142 -1276 -1272 -145 -29 -432 -31 -570 -5 -522 102 -941 419 -1166
884 -28 56 -60 109 -72 118 -18 12 -63 15 -270 15 l-248 0 -24 -25 c-33 -32
-33 -78 0 -110 24 -25 24 -25 237 -25 l213 0 27 -58 c128 -273 386 -556 658
-722 366 -222 805 -307 1220 -234 550 95 1024 450 1275 953 285 571 237 1240
-128 1780 -97 144 -304 351 -448 448 -369 249 -808 356 -1229 298z"/>
<path d="M2855 3989 c-772 -104 -1330 -811 -1246 -1579 70 -638 543 -1148
1176 -1266 134 -25 393 -26 518 -1 292 58 543 192 752 402 208 207 332 436
397 733 31 140 31 424 0 564 -65 297 -190 527 -396 734 -208 207 -435 330
-731 395 -105 23 -361 33 -470 18z m455 -178 c380 -86 702 -337 874 -679 231
-459 159 -1025 -181 -1412 -495 -563 -1356 -588 -1875 -52 -180 186 -290 390
-344 642 -26 119 -26 381 0 500 55 257 169 466 355 651 211 211 463 335 761
373 79 10 327 -4 410 -23z"/>
<path d="M2985 3735 c-22 -21 -25 -33 -25 -95 0 -62 3 -74 25 -95 15 -16 36
-25 55 -25 19 0 40 9 55 25 22 21 25 33 25 95 0 62 -3 74 -25 95 -15 16 -36
25 -55 25 -19 0 -40 -9 -55 -25z"/>
<path d="M2425 3585 c-14 -13 -25 -36 -25 -50 0 -31 56 -132 80 -145 50 -27
120 11 120 66 0 32 -54 130 -80 144 -32 17 -70 11 -95 -15z"/>
<path d="M3558 3600 c-23 -14 -78 -112 -78 -139 0 -56 57 -93 110 -71 34 14
90 105 90 145 0 54 -73 93 -122 65z"/>
<path d="M2985 3335 l-25 -24 0 -264 0 -265 -30 -12 c-42 -17 -104 -90 -118
-138 -28 -91 -8 -167 63 -237 53 -54 102 -75 171 -75 l39 0 108 -190 c60 -105
117 -195 127 -200 50 -27 120 11 120 65 0 16 -46 107 -109 216 l-108 189 28
56 c47 92 35 181 -32 258 -21 24 -52 49 -69 56 l-30 12 0 265 0 264 -25 24
c-15 16 -36 25 -55 25 -19 0 -40 -9 -55 -25z m110 -720 c50 -49 15 -135 -55
-135 -41 0 -80 39 -80 80 0 19 9 40 25 55 15 16 36 25 55 25 19 0 40 -9 55
-25z"/>
<path d="M2015 3175 c-26 -25 -32 -63 -15 -95 14 -26 112 -80 144 -80 55 0 93
70 66 120 -13 24 -114 80 -145 80 -14 0 -37 -11 -50 -25z"/>
<path d="M3935 3170 c-60 -35 -75 -54 -75 -92 0 -37 40 -78 76 -78 32 0 130
54 144 80 17 32 11 70 -15 95 -32 33 -68 31 -130 -5z"/>
<path d="M1865 2615 c-16 -15 -25 -36 -25 -55 0 -19 9 -40 25 -55 21 -22 33
-25 95 -25 62 0 74 3 95 25 16 15 25 36 25 55 0 19 -9 40 -25 55 -21 22 -33
25 -95 25 -62 0 -74 -3 -95 -25z"/>
<path d="M4025 2615 c-16 -15 -25 -36 -25 -55 0 -19 9 -40 25 -55 21 -22 33
-25 95 -25 62 0 74 3 95 25 16 15 25 36 25 55 0 19 -9 40 -25 55 -21 22 -33
25 -95 25 -62 0 -74 -3 -95 -25z"/>
<path d="M2065 2090 c-59 -35 -75 -54 -75 -92 0 -36 40 -78 75 -78 37 0 135
58 146 87 15 39 11 62 -16 88 -32 33 -68 31 -130 -5z"/>
<path d="M3885 2095 c-26 -25 -32 -63 -15 -95 13 -24 114 -80 145 -80 54 0 92
70 65 120 -14 26 -112 80 -144 80 -15 0 -38 -11 -51 -25z"/>
<path d="M2478 1730 c-23 -14 -78 -115 -78 -145 0 -54 70 -92 120 -65 26 14
80 112 80 144 0 55 -73 94 -122 66z"/>
<path d="M3505 1715 c-14 -13 -25 -36 -25 -51 0 -32 54 -130 80 -144 50 -27
120 11 120 65 0 31 -56 132 -80 145 -32 17 -70 11 -95 -15z"/>
<path d="M2985 1575 c-22 -21 -25 -33 -25 -95 0 -62 3 -74 25 -95 15 -16 36
-25 55 -25 19 0 40 9 55 25 22 21 25 33 25 95 0 62 -3 74 -25 95 -15 16 -36
25 -55 25 -19 0 -40 -9 -55 -25z"/>
<path d="M665 2615 c-16 -15 -25 -36 -25 -55 0 -19 9 -40 25 -55 l24 -25 351
0 351 0 24 25 c16 15 25 36 25 55 0 19 -9 40 -25 55 l-24 25 -351 0 -351 0
-24 -25z"/>
</g>
</svg>
