<?xml version="1.0" standalone="no"?>
<!DOCTYPE svg PUBLIC "-//W3C//DTD SVG 20010904//EN"
 "http://www.w3.org/TR/2001/REC-SVG-20010904/DTD/svg10.dtd">
<svg version="1.0" xmlns="http://www.w3.org/2000/svg"
 width="512.000000pt" height="512.000000pt" viewBox="0 0 512.000000 512.000000"
 preserveAspectRatio="xMidYMid meet">

<g transform="translate(0.000000,512.000000) scale(0.100000,-0.100000)"
fill="#B5C8CF" stroke="none">
<path d="M856 5103 c-65 -22 -147 -98 -177 -165 l-24 -53 -3 -487 -3 -488 -88
0 c-111 0 -177 -19 -224 -65 -48 -47 -67 -86 -74 -149 -12 -119 95 -246 207
-246 l30 0 0 -149 c0 -116 -4 -157 -17 -187 -26 -62 -22 -151 11 -217 45 -92
124 -148 232 -162 49 -6 50 -7 46 -35 -6 -43 16 -219 37 -292 50 -170 126
-303 245 -427 88 -91 167 -148 279 -202 83 -40 87 -43 87 -74 l0 -33 -37 19
c-51 26 -103 24 -145 -4 -31 -21 -49 -24 -184 -30 -82 -4 -178 -14 -213 -22
-189 -45 -358 -181 -446 -360 -67 -136 -68 -147 -72 -690 -3 -335 -1 -502 6
-526 14 -47 56 -68 101 -49 17 7 32 22 35 34 3 11 6 246 8 521 3 447 5 506 21
555 29 88 74 164 133 224 53 53 158 124 169 113 3 -2 -27 -85 -67 -182 l-72
-178 75 -146 c41 -80 164 -321 273 -534 130 -257 205 -393 221 -403 15 -10 33
-14 49 -10 30 8 65 44 65 68 0 10 -103 220 -229 466 -125 246 -242 474 -259
508 l-30 60 71 174 c61 148 77 178 105 197 33 22 116 38 163 31 l24 -3 5 -250
c4 -212 8 -255 22 -276 16 -26 73 -59 100 -59 10 0 28 -101 76 -432 39 -263
69 -442 78 -455 29 -45 103 -39 125 10 8 18 -4 123 -55 473 -36 247 -66 459
-66 470 0 16 36 49 135 123 74 55 139 101 145 101 6 0 74 -47 151 -106 136
-102 140 -106 134 -137 -16 -91 -135 -885 -135 -900 0 -27 45 -67 75 -67 14 0
36 10 48 23 20 20 30 68 86 437 71 468 70 460 83 460 6 0 26 7 45 16 65 32 67
40 73 319 l5 250 66 -1 c78 -1 122 -17 148 -53 10 -14 47 -98 83 -186 l65
-160 -258 -505 c-142 -278 -259 -515 -259 -527 0 -50 72 -87 113 -60 29 19
557 1052 557 1090 0 14 -34 107 -75 206 -41 100 -75 186 -75 191 0 6 44 10
105 10 l105 0 0 -115 c0 -110 1 -117 25 -140 31 -32 69 -32 100 0 l25 24 0
515 c0 499 1 516 19 526 12 6 92 10 190 10 l171 0 0 -55 c0 -92 37 -158 112
-196 49 -25 132 -25 181 0 36 18 38 18 74 0 22 -11 58 -19 88 -19 30 0 66 8
88 19 36 18 38 18 74 0 50 -25 132 -25 182 1 74 37 111 104 111 203 l0 47 171
0 c98 0 178 -4 190 -10 19 -10 19 -30 19 -850 l0 -840 -162 -1 c-178 -1 -210
-7 -259 -54 -53 -49 -59 -77 -59 -260 l0 -165 -583 0 c-440 0 -586 3 -595 12
-9 9 -12 104 -12 365 l0 354 -25 24 c-31 32 -69 32 -101 0 l-25 -25 3 -378 3
-378 27 -41 c16 -24 44 -49 70 -62 44 -21 52 -21 693 -21 l650 0 262 263 263
262 0 900 c0 852 -1 902 -19 940 -22 50 -69 91 -119 105 -20 5 -117 10 -214
10 l-178 0 0 43 c0 93 -38 160 -111 197 -50 26 -132 26 -182 1 -36 -18 -38
-18 -74 0 -48 25 -136 25 -182 0 -32 -17 -35 -17 -69 1 -22 11 -58 18 -90 18
-118 0 -202 -87 -202 -210 l0 -50 -177 0 c-194 0 -236 -7 -284 -47 -66 -56
-69 -71 -69 -440 l0 -333 -305 0 c-191 0 -305 4 -305 10 0 15 -56 40 -92 40
-19 0 -50 -9 -71 -19 l-37 -19 0 33 c0 31 4 34 87 74 115 55 192 112 284 208
169 177 265 409 272 653 l2 89 50 6 c150 19 259 137 258 280 0 33 -8 77 -17
99 -12 30 -16 73 -16 187 l0 149 29 0 c65 0 148 55 181 120 60 118 12 259
-108 316 -26 12 -70 19 -144 22 l-107 5 -3 486 c-3 483 -3 486 -26 536 -29 63
-83 119 -147 153 l-50 27 -860 2 c-773 2 -865 0 -909 -14z m1748 -147 c18 -8
46 -31 62 -52 l29 -37 3 -308 3 -309 -636 -2 -637 -3 -25 -29 c-27 -31 -25
-66 4 -98 15 -17 62 -18 652 -20 l636 -3 3 -92 3 -93 -951 0 -951 0 3 93 3 92
117 3 c113 3 118 4 138 29 26 34 25 56 -4 90 -24 27 -27 28 -140 31 l-116 4 0
293 c0 304 3 330 43 374 48 52 23 50 905 51 681 0 828 -2 856 -14z m463 -1230
c29 -35 26 -80 -8 -108 -20 -17 -97 -18 -1311 -18 l-1289 0 -24 25 c-14 13
-25 35 -25 47 0 30 26 67 54 78 11 5 592 8 1299 7 l1279 -2 25 -29z m-2289
-354 c3 -81 6 -77 -75 -87 l-53 -6 0 86 0 86 63 -3 62 -3 3 -73z m1790 -399
c-3 -470 -4 -479 -27 -548 -121 -363 -423 -588 -791 -588 -234 -1 -435 86
-597 257 -86 89 -142 183 -185 307 l-33 94 -3 478 -3 477 821 0 821 0 -3 -477z
m280 388 l3 -84 -32 7 c-17 3 -47 6 -65 6 l-34 0 0 73 c0 41 3 77 7 81 4 4 32
6 63 4 l55 -3 3 -84z m-2068 -345 c0 -71 -4 -127 -10 -131 -5 -3 -26 -3 -46 1
-83 15 -132 102 -97 172 22 46 75 82 119 82 l34 0 0 -124z m2037 104 c44 -27
65 -63 65 -111 -1 -70 -47 -117 -118 -122 l-39 -2 -3 128 -3 127 33 0 c18 0
47 -9 65 -20z m841 -542 c8 -8 12 -62 12 -178 0 -116 -4 -170 -12 -178 -19
-19 -66 -15 -78 7 -5 11 -10 86 -10 171 0 85 5 160 10 171 12 22 59 26 78 7z
m252 2 c12 -7 16 -40 18 -165 4 -172 -5 -205 -53 -205 -50 0 -55 18 -55 186 0
88 4 164 10 175 11 20 54 26 80 9z m260 -9 c5 -11 10 -86 10 -171 0 -85 -5
-160 -10 -171 -12 -22 -59 -26 -78 -7 -17 17 -17 339 0 356 19 19 66 15 78 -7z
m-2420 -885 c58 0 122 4 143 8 l37 7 -1 -78 0 -78 -85 -65 c-46 -36 -89 -65
-94 -65 -5 0 -48 29 -94 65 l-85 65 -1 78 0 78 38 -7 c20 -4 84 -8 142 -8z
m-265 -262 c74 -58 135 -109 135 -112 -1 -4 -46 -41 -102 -82 -56 -41 -119
-88 -140 -103 l-38 -29 0 216 c0 119 2 216 5 216 3 0 66 -48 140 -106z m675
-110 l0 -216 -38 29 c-21 15 -84 62 -140 103 -56 41 -100 79 -99 84 3 11 258
215 270 216 4 0 7 -97 7 -216z m2335 -944 l-110 -110 -3 96 c-2 62 1 101 9
110 8 10 38 14 113 14 l101 0 -110 -110z"/>
<path d="M1049 3251 c-22 -18 -24 -28 -27 -132 -8 -233 46 -347 198 -418 46
-22 69 -26 140 -26 71 1 94 5 141 28 66 32 132 99 162 165 18 40 22 71 25 199
l4 152 -25 25 -26 26 -284 0 c-265 0 -286 -1 -308 -19z m491 -208 c-1 -121
-38 -184 -127 -214 -81 -26 -183 15 -218 88 -12 23 -20 69 -23 121 l-5 82 187
0 186 0 0 -77z"/>
<path d="M1323 3070 c-23 -9 -39 -50 -34 -85 8 -58 83 -76 120 -29 28 35 26
69 -4 99 -25 26 -45 30 -82 15z"/>
<path d="M1836 3249 c-26 -20 -26 -21 -26 -164 0 -172 15 -225 86 -304 178
-197 502 -116 569 144 20 79 20 265 0 304 -8 16 -22 31 -30 35 -9 3 -142 6
-294 6 -266 0 -279 -1 -305 -21z m492 -212 c-3 -61 -10 -93 -27 -122 -71 -127
-255 -124 -321 6 -15 29 -20 58 -20 119 l0 80 186 0 187 0 -5 -83z"/>
<path d="M2095 3055 c-66 -65 16 -163 93 -109 16 11 22 25 22 52 0 43 -7 55
-37 71 -33 17 -51 14 -78 -14z"/>
<path d="M1479 2361 c-17 -13 -23 -29 -23 -56 0 -27 6 -43 23 -56 21 -17 44
-19 268 -19 137 0 252 4 262 10 10 5 24 22 30 39 10 24 10 34 -3 59 -8 16 -23
32 -31 36 -9 3 -126 6 -260 6 -222 0 -245 -2 -266 -19z"/>
<path d="M3281 1814 c-28 -35 -26 -69 4 -100 l25 -24 571 2 571 3 19 24 c25
30 24 62 -2 95 l-20 26 -574 0 -574 0 -20 -26z"/>
<path d="M3285 1495 c-14 -13 -25 -36 -25 -50 0 -14 11 -37 25 -50 l24 -25
566 0 566 0 24 25 c14 13 25 36 25 50 0 14 -11 37 -25 50 l-24 25 -566 0 -566
0 -24 -25z"/>
<path d="M3460 1157 c-14 -7 -29 -26 -35 -45 -5 -17 -13 -32 -17 -32 -17 0
-82 -67 -94 -97 -8 -18 -14 -54 -14 -80 0 -85 51 -140 175 -191 82 -33 96 -51
75 -89 -23 -42 -62 -51 -118 -29 -73 28 -95 30 -120 9 -12 -10 -25 -33 -28
-50 -6 -28 -2 -37 26 -63 17 -16 49 -35 71 -41 27 -9 39 -18 39 -31 0 -27 36
-58 68 -58 38 0 69 24 77 60 4 17 10 30 14 30 5 0 29 18 54 40 72 64 95 155
58 235 -26 57 -61 85 -154 125 -64 27 -83 40 -85 58 -5 33 38 47 85 27 77 -32
133 -10 133 52 0 34 -39 80 -77 89 -12 4 -23 12 -23 20 0 18 -41 61 -65 68
-11 3 -31 0 -45 -7z"/>
<path d="M1706 1009 c-52 -41 -23 -129 44 -129 67 0 96 88 44 129 -15 12 -34
21 -44 21 -10 0 -29 -9 -44 -21z"/>
<path d="M1706 719 c-52 -41 -23 -129 44 -129 67 0 96 88 44 129 -15 12 -34
21 -44 21 -10 0 -29 -9 -44 -21z"/>
<path d="M1700 430 c-12 -12 -20 -33 -20 -55 0 -68 73 -100 118 -52 64 68 -33
172 -98 107z"/>
</g>
</svg>
