<?xml version="1.0" standalone="no"?>
<!DOCTYPE svg PUBLIC "-//W3C//DTD SVG 20010904//EN"
 "http://www.w3.org/TR/2001/REC-SVG-20010904/DTD/svg10.dtd">
<svg version="1.0" xmlns="http://www.w3.org/2000/svg"
 width="512.000000pt" height="512.000000pt" viewBox="0 0 512.000000 512.000000"
 preserveAspectRatio="xMidYMid meet">

<g transform="translate(0.000000,512.000000) scale(0.100000,-0.100000)"
fill="#B5C8CF" stroke="none">
<path d="M1885 4653 c-16 -2 -73 -10 -125 -19 -705 -113 -1318 -597 -1595
-1259 -222 -530 -219 -1124 9 -1650 317 -732 1036 -1232 1817 -1262 201 -8
189 -24 189 238 0 111 -4 208 -10 219 -15 28 -61 40 -97 25 -43 -18 -53 -57
-53 -203 l0 -125 -84 7 c-118 9 -313 49 -431 89 -125 42 -295 116 -295 128 0
6 29 61 65 123 36 62 65 125 65 140 0 56 -79 97 -123 64 -9 -7 -47 -66 -85
-131 l-69 -118 -81 58 c-115 83 -234 187 -308 269 -74 83 -204 254 -204 269 0
5 43 34 96 64 133 75 154 94 154 140 0 26 -7 44 -20 56 -35 32 -77 23 -171
-32 -48 -28 -101 -59 -118 -67 l-30 -16 -20 37 c-10 21 -39 91 -65 156 -69
176 -111 362 -130 580 l-4 47 145 0 c139 0 145 1 168 25 33 32 33 78 0 110
-23 24 -29 25 -168 25 l-145 0 4 48 c19 217 61 403 130 579 26 65 55 135 65
156 l20 37 30 -16 c17 -8 68 -37 113 -64 102 -60 128 -68 162 -46 33 22 46 58
33 94 -9 27 -49 55 -206 143 -24 13 -43 29 -43 34 0 23 165 228 259 322 86 87
263 232 319 262 16 9 26 -4 82 -101 35 -61 72 -120 82 -130 42 -42 128 -3 128
59 0 16 -28 75 -65 140 -36 62 -65 116 -65 121 0 13 170 87 295 129 124 42
314 81 434 90 l91 6 0 -142 c0 -78 4 -151 10 -161 28 -51 118 -38 139 20 14
42 15 332 1 382 -6 21 -19 42 -30 48 -17 9 -197 12 -265 3z"/>
<path d="M2610 4593 c-90 -32 -72 -153 22 -153 41 0 78 36 78 76 0 43 -61 91
-100 77z"/>
<path d="M3062 4367 c-42 -45 -20 -119 38 -132 61 -13 113 50 89 107 -22 53
-89 66 -127 25z"/>
<path d="M3482 4047 c-68 -73 28 -181 102 -114 55 50 24 137 -49 137 -20 0
-39 -8 -53 -23z"/>
<path d="M2058 3636 c-36 -27 -38 -61 -38 -554 l-1 -487 -265 -185 c-146 -102
-274 -196 -285 -209 -40 -50 -6 -121 58 -121 30 0 78 29 302 186 146 103 285
202 309 221 l42 34 0 543 0 543 -23 21 c-26 25 -73 28 -99 8z"/>
<path d="M3802 3627 c-44 -47 -19 -121 45 -133 27 -5 37 -1 64 25 26 27 30 37
25 64 -12 65 -91 90 -134 44z"/>
<path d="M4001 3134 c-27 -35 -26 -66 2 -100 17 -20 33 -27 57 -27 24 0 40 7
57 27 28 34 29 65 2 100 -16 20 -29 26 -59 26 -30 0 -43 -6 -59 -26z"/>
<path d="M4075 2615 c-69 -68 23 -175 102 -120 41 29 38 98 -6 132 -26 20 -70
15 -96 -12z"/>
<path d="M4262 2073 c-32 -27 -404 -975 -396 -1007 17 -71 116 -80 147 -13 44
93 377 945 377 965 0 57 -84 92 -128 55z"/>
<path d="M2664 2039 c-115 -44 -193 -151 -202 -279 -4 -63 -3 -70 21 -94 32
-32 68 -33 103 -3 21 18 29 37 35 82 14 102 73 155 174 155 77 0 120 -25 153
-90 24 -49 27 -77 12 -132 -16 -57 -47 -86 -187 -181 -173 -116 -235 -173
-273 -251 -37 -74 -50 -164 -30 -202 22 -41 64 -46 357 -42 266 3 273 3 295
25 31 31 30 89 -1 114 -21 17 -43 19 -252 19 -171 0 -229 3 -229 12 0 23 107
114 242 206 155 105 198 153 230 255 53 166 -32 348 -189 407 -72 27 -189 26
-259 -1z"/>
<path d="M3608 2050 c-16 -10 -481 -658 -507 -708 -15 -29 -7 -66 19 -92 19
-19 34 -20 235 -20 l215 0 0 -88 c0 -81 2 -90 25 -112 35 -33 81 -31 112 4 20
24 23 37 23 112 l0 84 53 0 c44 0 58 4 77 25 56 60 11 135 -81 135 l-49 0 0
310 0 311 -25 24 c-25 26 -67 32 -97 15z m-41 -657 c-3 -2 -57 -2 -121 -1
l-116 3 117 165 118 164 3 -163 c1 -90 1 -166 -1 -168z"/>
<path d="M4452 2033 c-21 -8 -43 -61 -36 -88 3 -14 18 -34 31 -45 24 -18 41
-20 224 -20 110 0 199 -2 199 -4 0 -2 -28 -48 -61 -102 -74 -116 -157 -289
-193 -398 -26 -80 -66 -257 -66 -295 0 -35 42 -74 80 -73 54 1 69 27 97 158
52 249 128 404 358 728 41 57 44 88 10 121 l-24 25 -303 -1 c-167 0 -309 -3
-316 -6z"/>
</g>
</svg>
