<svg width="330" height="53" viewBox="0 0 330 53" fill="none" xmlns="http://www.w3.org/2000/svg">
<path fill-rule="evenodd" clip-rule="evenodd" d="M51.3404 52.6481H46.1501H36.15L36.1332 46.4206H44.9958V27.9184L25.6949 8.97188L6.34416 27.9671V46.4206H22.3078V45.6435L25.4798 42.5296L28.6519 45.6435L28.6582 47.5536H28.6618V50.0397L28.6629 50.9784V51.2237H28.6614V52.6481H22.9672H5.18989H0V47.5536V25.4569L22.0002 3.60257L25.67 0L29.3398 3.60257L51.3404 25.4569V47.5536V52.6481Z" fill="url(#paint0_linear)"/>
<path fill-rule="evenodd" clip-rule="evenodd" d="M28.646 32.0892V43.0945L25.4738 39.9808L22.3016 43.0945V32.0892H15.4883L25.4738 22.2874L35.459 32.0892H28.646Z" fill="url(#paint1_linear)"/>
<path d="M72.975 11H80.9419L86.8389 40.97H80.3952L79.3408 34.643H74.6935L73.6 40.97H67L72.975 11ZM78.6768 30.684L76.9976 18.992L75.3182 30.684H78.6768ZM89.6812 19.584H96.047V21.138C96.7759 20.4968 97.57 20.0158 98.4292 19.695C99.2883 19.3743 100.121 19.214 100.929 19.214C102.569 19.214 103.779 19.7937 104.561 20.9531C105.368 22.1123 105.771 23.6293 105.771 25.5041V34.717C105.771 36.7643 105.342 38.3801 104.482 39.564C103.623 40.748 102.413 41.34 100.85 41.34C99.2622 41.34 97.661 40.6741 96.047 39.3421V48H89.6812V19.584ZM97.7262 37.4551C98.299 37.4551 98.7155 37.233 98.9759 36.789C99.2622 36.345 99.4054 35.7654 99.4054 35.0501V25.06C99.4054 24.4188 99.2754 23.8883 99.0149 23.4691C98.7545 23.0497 98.364 22.84 97.8433 22.84C97.2186 22.84 96.6198 23.0868 96.047 23.5801V36.9C96.6456 37.27 97.2055 37.4551 97.7262 37.4551ZM116.78 41.34C114.306 41.34 112.379 40.7233 111 39.4901C109.62 38.232 108.93 36.4683 108.93 34.1991V26.3549C108.93 24.0858 109.62 22.3343 111 21.1009C112.379 19.843 114.306 19.214 116.78 19.214C119.279 19.214 121.153 19.8183 122.403 21.027C123.653 22.2357 124.278 24.0117 124.278 26.3549V30.6471H115.217V34.754C115.217 36.2833 115.738 37.048 116.78 37.048C117.873 37.048 118.42 36.3574 118.42 34.976V32.719H124.278V34.791C124.278 36.937 123.614 38.565 122.286 39.675C120.984 40.7851 119.149 41.34 116.78 41.34ZM118.42 27.835V25.689C118.42 24.8998 118.264 24.3447 117.951 24.024C117.665 23.6787 117.261 23.506 116.741 23.506C116.246 23.506 115.868 23.691 115.608 24.0611C115.347 24.4311 115.217 25.0847 115.217 26.022V27.835H118.42ZM127.743 19.584H134.108V27.872H137.897V19.584H144.301V40.97H137.897V32.016H134.108V40.97H127.743V19.584ZM147.519 37.3071C149.211 36.5423 150.487 35.3213 151.347 33.644C152.231 31.9421 152.764 29.5741 152.947 26.54L153.612 19.584H166.03V37.27H169.31V46.7791H164.741L164.312 40.97H152.518L152.166 46.7791H147.519V37.3071ZM160.211 37.27V23.173H158.337L157.867 27.983C157.712 30.5238 157.335 32.5093 156.735 33.94C156.162 35.3707 155.381 36.4808 154.393 37.27H160.211ZM176.629 41.34C175.536 41.34 174.586 41.0933 173.78 40.6C172.999 40.0821 172.399 39.4283 171.984 38.6391C171.593 37.825 171.397 36.9862 171.397 36.1231C171.397 34.4702 171.838 33.1138 172.724 32.0531C173.61 30.9924 174.664 30.1661 175.889 29.5741C177.139 28.9821 178.739 28.3654 180.691 27.724V25.578C180.691 24.9613 180.587 24.4927 180.379 24.1721C180.196 23.8512 179.859 23.691 179.364 23.691C178.868 23.691 178.518 23.8391 178.31 24.135C178.1 24.4311 177.985 24.8503 177.958 25.3931L177.801 26.9471L171.865 26.725C171.97 24.1597 172.686 22.2728 174.014 21.064C175.343 19.8307 177.32 19.214 179.95 19.214C182.162 19.214 183.855 19.806 185.026 20.99C186.199 22.1493 186.784 23.7033 186.784 25.652V35.6421C186.784 37.8128 186.913 39.5888 187.174 40.97H181.473C181.238 39.3173 181.068 38.306 180.965 37.9361C180.654 38.9227 180.131 39.7368 179.404 40.378C178.673 41.0194 177.75 41.34 176.629 41.34ZM178.895 37.27C179.546 37.27 180.144 36.9123 180.691 36.197V30.351C179.519 30.9924 178.633 31.6707 178.035 32.386C177.437 33.0767 177.139 33.9277 177.139 34.9391C177.139 35.6544 177.294 36.2218 177.608 36.641C177.919 37.0603 178.348 37.27 178.895 37.27ZM200.9 11H209.139C211.197 11 212.941 11.2097 214.372 11.629C215.831 12.0237 217.003 12.8007 217.887 13.96C218.773 15.1192 219.215 16.7473 219.215 18.844C219.215 20.6199 218.811 22.0013 218.005 22.9881C217.198 23.9747 216.052 24.6037 214.568 24.875C216.389 25.097 217.784 25.8247 218.746 27.0581C219.709 28.2913 220.192 29.9687 220.192 32.09C220.192 38.01 217.003 40.97 210.624 40.97H200.9V11ZM209.257 22.9881C210.741 22.9881 211.743 22.6672 212.264 22.0261C212.81 21.3847 213.085 20.3858 213.085 19.029C213.085 17.845 212.745 16.957 212.069 16.365C211.391 15.7483 210.403 15.44 209.101 15.44H207.89V22.9881H209.257ZM209.374 36.345C210.857 36.345 211.899 35.9998 212.497 35.3091C213.122 34.5938 213.435 33.4838 213.435 31.979C213.435 30.2771 213.122 29.0808 212.497 28.39C211.899 27.6993 210.843 27.354 209.335 27.354H207.89V36.345H209.374ZM223.506 19.584H229.873V28.168H230.067C233.347 28.168 235.757 28.6367 237.293 29.5741C238.856 30.5114 239.637 32.164 239.637 34.532C239.637 36.8508 238.893 38.5033 237.41 39.4901C235.952 40.4767 233.518 40.97 230.107 40.97H223.506V19.584ZM242.058 19.584H248.422V40.97H242.058V19.584ZM229.99 37.529C231.422 37.529 232.424 37.3194 232.997 36.9C233.569 36.456 233.857 35.6913 233.857 34.606C233.857 33.4961 233.569 32.7437 232.997 32.349C232.451 31.9544 231.474 31.7447 230.067 31.7201H229.873V37.529H229.99ZM259.758 41.34C257.309 41.34 255.397 40.711 254.015 39.4531C252.636 38.195 251.948 36.4437 251.948 34.1991V26.3549C251.948 24.0858 252.623 22.3343 253.978 21.1009C255.357 19.843 257.285 19.214 259.758 19.214C262.206 19.214 264.081 19.7568 265.381 20.8421C266.709 21.9272 267.371 23.5307 267.371 25.652V27.909H261.241V25.467C261.241 24.6531 261.112 24.098 260.851 23.802C260.616 23.4812 260.253 23.321 259.758 23.321C259.262 23.321 258.899 23.5183 258.664 23.913C258.456 24.283 258.351 24.9242 258.351 25.837V34.717C258.351 35.6298 258.468 36.271 258.703 36.641C258.936 37.011 259.303 37.1961 259.795 37.1961C260.291 37.1961 260.655 37.0357 260.889 36.7151C261.124 36.3942 261.241 35.8517 261.241 35.087V32.238H267.371V34.8281C267.371 36.9493 266.709 38.565 265.381 39.675C264.054 40.7851 262.179 41.34 259.758 41.34ZM278.103 41.34C275.63 41.34 273.69 40.748 272.285 39.564C270.904 38.3801 270.214 36.641 270.214 34.3471V26.2071C270.214 23.913 270.904 22.1739 272.285 20.99C273.69 19.806 275.63 19.214 278.103 19.214C280.578 19.214 282.518 19.8183 283.923 21.027C285.329 22.211 286.032 23.9378 286.032 26.2071V34.3471C286.032 36.6164 285.329 38.3553 283.923 39.564C282.518 40.748 280.578 41.34 278.103 41.34ZM278.143 37.3441C278.741 37.3441 279.159 37.1343 279.393 36.7151C279.628 36.271 279.743 35.6173 279.743 34.754V25.8C279.743 24.9367 279.628 24.2953 279.393 23.876C279.159 23.432 278.741 23.21 278.143 23.21C277.544 23.21 277.115 23.432 276.853 23.876C276.619 24.3201 276.503 24.9613 276.503 25.8V34.754C276.503 35.6173 276.619 36.271 276.853 36.7151C277.115 37.1343 277.544 37.3441 278.143 37.3441ZM291.991 23.654H287.889V19.584H302.417V23.654H298.317V40.97H291.991V23.654ZM305.084 19.584H311.449V28.168H311.645C314.925 28.168 317.333 28.6367 318.869 29.5741C320.43 30.5114 321.211 32.164 321.211 34.532C321.211 36.8508 320.471 38.5033 318.986 39.4901C317.527 40.4767 315.094 40.97 311.683 40.97H305.084V19.584ZM323.634 19.584H330V40.97H323.634V19.584ZM311.566 37.529C312.997 37.529 314.002 37.3194 314.573 36.9C315.146 36.456 315.433 35.6913 315.433 34.606C315.433 33.4961 315.146 32.7437 314.573 32.349C314.026 31.9544 313.05 31.7447 311.645 31.7201H311.449V37.529H311.566Z" fill="#293948"/>
<defs>
<linearGradient id="paint0_linear" x1="25.4179" y1="52.6481" x2="25.6609" y2="-4.45414e-05" gradientUnits="userSpaceOnUse">
<stop stop-color="#4C9017"/>
<stop offset="1" stop-color="#0587D3"/>
</linearGradient>
<linearGradient id="paint1_linear" x1="25.0732" y1="30.8106" x2="25.0729" y2="44.5724" gradientUnits="userSpaceOnUse">
<stop stop-color="#F5812C"/>
<stop offset="1" stop-color="#4C9017"/>
</linearGradient>
</defs>
</svg>
