<?xml version="1.0" standalone="no"?>
<!DOCTYPE svg PUBLIC "-//W3C//DTD SVG 20010904//EN"
 "http://www.w3.org/TR/2001/REC-SVG-20010904/DTD/svg10.dtd">
<svg version="1.0" xmlns="http://www.w3.org/2000/svg"
 width="120.000000pt" height="120.000000pt" viewBox="0 0 120.000000 120.000000"
 preserveAspectRatio="xMidYMid meet">
<metadata>
Created by potrace 1.14, written by Peter Selinger 2001-2017
</metadata>
<g transform="translate(0.000000,120.000000) scale(0.100000,-0.100000)"
fill="#000000" stroke="none">
<path d="M350 868 l-245 -250 -5 -241 c-3 -133 -4 -257 -2 -274 l3 -33 280 0
279 0 0 68 c0 63 -2 71 -32 101 l-32 33 -37 -39 -37 -40 -148 1 -149 1 -2 183
-2 184 190 189 190 190 187 -188 187 -188 2 -185 2 -186 -57 -1 c-130 -2 -118
5 -117 -60 l0 -58 148 -3 147 -3 0 273 0 273 -250 253 c-138 138 -251 252
-252 251 -2 0 -113 -113 -248 -251z"/>
<path d="M498 580 c-49 -49 -88 -92 -88 -95 0 -3 27 -5 60 -5 50 0 60 -3 61
-17 1 -10 1 -57 2 -105 0 -49 3 -88 6 -88 2 0 17 12 33 27 l28 26 20 -26 c12
-15 25 -27 30 -27 5 0 8 35 8 78 0 147 -7 132 68 132 l66 0 -95 95 c-52 52
-99 95 -103 94 -5 0 -48 -41 -96 -89z"/>
</g>
</svg>
