<svg width="40" height="40" viewBox="0 0 40 40" fill="none" xmlns="http://www.w3.org/2000/svg">
<rect x="0.5" y="0.5" width="39" height="39" stroke="url(#paint0_linear)"/>
<path d="M32.4026 23.2232C32.389 23.1571 32.3612 23.0934 32.3215 23.0388L29.5679 19.2537C29.145 18.6723 28.4633 18.3252 27.7443 18.3252H23.9727V17.126C23.9727 16.8627 23.7592 16.6492 23.4959 16.6492H20.2083C19.9698 14.426 18.0826 12.689 15.7971 12.689C13.5116 12.689 11.6244 14.426 11.3858 16.6492H8.47681C8.21347 16.6492 8 16.8627 8 17.126V27.3122C8 27.5755 8.21347 27.789 8.47681 27.789H10.6109C10.6067 27.8425 10.6039 27.8963 10.6039 27.9509C10.6039 29.0808 11.5232 30 12.6531 30C13.7831 30 14.7023 29.0808 14.7023 27.9509C14.7023 27.8963 14.6995 27.8425 14.6952 27.789H16.9211C17.1845 27.789 17.398 27.5755 17.398 27.3122C17.398 27.0488 17.1845 26.8353 16.9211 26.8353H14.372C13.998 26.2594 13.3396 25.9017 12.6531 25.9017C11.9665 25.9017 11.3085 26.2594 10.9341 26.8353H8.95362V17.6028H11.3856C11.6244 19.824 13.5644 21.5628 15.7971 21.5628C18.0303 21.5628 19.9702 19.8234 20.2086 17.6028H23.0191V26.8353H21.1168C20.8535 26.8353 20.64 27.0488 20.64 27.3122C20.64 27.5755 20.8535 27.789 21.1168 27.789H25.2027C25.1985 27.8425 25.1957 27.8963 25.1957 27.9509C25.1957 29.0808 26.1149 30 27.2449 30C28.3748 30 29.294 29.0808 29.294 27.9509C29.294 27.8963 29.2913 27.8425 29.287 27.789H31.9359C32.1993 27.789 32.4127 27.5755 32.4127 27.3122V23.3193C32.4127 23.2868 32.4091 23.2546 32.4026 23.2232V23.2232ZM12.6531 29.0464C12.049 29.0464 11.5575 28.555 11.5575 27.9509C11.5575 27.3838 12.014 26.8958 12.5798 26.8581C13.2011 26.8164 13.7486 27.3283 13.7486 27.9509C13.7486 28.5549 13.2572 29.0464 12.6531 29.0464ZM15.7971 13.6425C17.7178 13.6425 19.2804 15.2051 19.2804 17.1258C19.2804 19.0216 17.6937 20.6091 15.7973 20.6091C13.9012 20.6091 12.3138 19.0215 12.3138 17.1258C12.3138 15.2051 13.8764 13.6425 15.7971 13.6425V13.6425ZM27.5682 19.2789H27.7442C28.1592 19.2789 28.5526 19.4792 28.7967 19.8147L30.9994 22.8425H28.2955C27.8945 22.8425 27.5682 22.5163 27.5682 22.1153V19.2789ZM27.2449 29.0464C26.6408 29.0464 26.1493 28.555 26.1493 27.9509C26.1493 27.3542 26.6491 26.8554 27.245 26.8554C27.8406 26.8554 28.3403 27.3547 28.3403 27.9509C28.3404 28.5549 27.8489 29.0464 27.2449 29.0464ZM28.9638 26.8353C28.5899 26.2594 27.9314 25.9017 27.2449 25.9017C26.5584 25.9017 25.8998 26.2594 25.5258 26.8353H23.9727V19.2788H26.6146V22.1153C26.6146 23.0422 27.3687 23.7962 28.2955 23.7962H31.4591V24.8803H30.8601C30.5967 24.8803 30.3832 25.0937 30.3832 25.3571C30.3832 25.6204 30.5967 25.8339 30.8601 25.8339H31.4591V26.8353H28.9638Z" fill="url(#paint1_linear)"/>
<path d="M9.61917 14.4865C9.69236 14.527 9.77151 14.5463 9.84966 14.5463C10.0174 14.5463 10.1802 14.4575 10.2673 14.3003C11.4099 12.236 13.5837 10.9536 15.9402 10.9536C17.8687 10.9536 19.651 11.7902 20.8732 13.2307L20.5303 13.2057C20.2679 13.1863 20.0393 13.384 20.0201 13.6467C20.001 13.9093 20.1983 14.1377 20.461 14.1569L21.8266 14.2564C22.0586 14.2735 22.2749 14.1128 22.3264 13.8859L22.6464 12.4693C22.7044 12.2124 22.5432 11.9571 22.2864 11.8991C22.0297 11.8412 21.7743 12.0023 21.7162 12.2591L21.628 12.6497C21.0623 11.9781 20.3801 11.4069 19.6155 10.971C18.5011 10.3358 17.2301 10 15.9401 10C13.2369 10 10.7434 11.4708 9.43288 13.8385C9.30538 14.0688 9.38877 14.359 9.61917 14.4865V14.4865Z" fill="url(#paint2_linear)"/>
<path d="M14.5303 18.8021C14.6523 18.8021 14.7744 18.7555 14.8675 18.6625L16.0669 17.4629C16.1563 17.3735 16.2066 17.2523 16.2066 17.1258V15.021C16.2066 14.7577 15.9931 14.5442 15.7298 14.5442C15.4664 14.5442 15.253 14.7577 15.253 15.021V16.9283L14.1931 17.9882C14.0069 18.1743 14.0069 18.4763 14.1931 18.6625C14.2863 18.7556 14.4083 18.8021 14.5303 18.8021Z" fill="url(#paint3_linear)"/>
<path d="M19.2837 26.9156C18.9227 26.6792 18.4433 27.0211 18.5596 27.4393C18.6141 27.6351 18.7919 27.7784 18.9953 27.7881C19.199 27.7978 19.3899 27.6737 19.4634 27.4836C19.5428 27.2784 19.4669 27.0377 19.2837 26.9156V26.9156Z" fill="url(#paint4_linear)"/>
<defs>
<linearGradient id="paint0_linear" x1="20" y1="0" x2="20" y2="40" gradientUnits="userSpaceOnUse">
<stop stop-color="white"/>
<stop offset="1" stop-color="#F8FAFC"/>
</linearGradient>
<linearGradient id="paint1_linear" x1="20.2064" y1="12.689" x2="20.2064" y2="30" gradientUnits="userSpaceOnUse">
<stop stop-color="white"/>
<stop offset="1" stop-color="#F8FAFC"/>
</linearGradient>
<linearGradient id="paint2_linear" x1="16.0157" y1="10" x2="16.0157" y2="14.5463" gradientUnits="userSpaceOnUse">
<stop stop-color="white"/>
<stop offset="1" stop-color="#F8FAFC"/>
</linearGradient>
<linearGradient id="paint3_linear" x1="15.13" y1="14.5442" x2="15.13" y2="18.8021" gradientUnits="userSpaceOnUse">
<stop stop-color="white"/>
<stop offset="1" stop-color="#F8FAFC"/>
</linearGradient>
<linearGradient id="paint4_linear" x1="19.0183" y1="26.8381" x2="19.0183" y2="27.7886" gradientUnits="userSpaceOnUse">
<stop stop-color="white"/>
<stop offset="1" stop-color="#F8FAFC"/>
</linearGradient>
</defs>
</svg>
