<svg width="40" height="40" viewBox="0 0 40 40" fill="none" xmlns="http://www.w3.org/2000/svg">
<g clip-path="url(#clip0)">
<path d="M29.9218 28.1116L28.5488 24.1157C29.2092 22.7808 29.5584 21.2929 29.5608 19.7957C29.5648 17.2175 28.5672 14.7796 26.7518 12.9314C24.9362 11.0827 22.5167 10.0422 19.9392 10.0013C18.5887 9.97962 17.2783 10.2285 16.0424 10.7401C14.8503 11.2335 13.7813 11.9483 12.8651 12.8646C11.9488 13.7808 11.234 14.8498 10.7405 16.0419C10.2289 17.2778 9.98039 18.5889 10.0018 19.9387C10.0426 22.5162 11.0832 24.9357 12.9318 26.7514C14.7765 28.5632 17.208 29.5604 19.7807 29.5604C19.7857 29.5604 19.7911 29.5604 19.7961 29.5604C21.2933 29.5581 22.7812 29.2088 24.1161 28.5484L28.112 29.9214C28.2656 29.9742 28.4231 30 28.5789 30C28.949 30 29.309 29.8546 29.5819 29.5816C29.9698 29.1937 30.1001 28.6304 29.9218 28.1116ZM28.7435 28.7431C28.7041 28.7824 28.6199 28.8421 28.4972 28.8L24.2631 27.3451C24.2005 27.3236 24.1354 27.3129 24.0705 27.3129C23.9747 27.3129 23.8795 27.3361 23.7932 27.3818C22.5695 28.0291 21.1867 28.3725 19.7942 28.3746C15.1243 28.3821 11.2613 24.589 11.1873 19.9199C11.1501 17.5707 12.0437 15.3628 13.7035 13.7031C15.3633 12.0433 17.5705 11.1499 19.9203 11.187C24.5895 11.261 28.3822 15.1221 28.375 19.7939C28.3728 21.1864 28.0294 22.5692 27.3821 23.7928C27.3054 23.9376 27.2922 24.1078 27.3455 24.2627L28.8004 28.4968C28.8425 28.6195 28.7829 28.7038 28.7435 28.7431Z" fill="url(#paint0_linear)"/>
<path d="M19.684 24.1699C19.3738 24.1699 19.0767 24.4426 19.0911 24.7628C19.1054 25.084 19.3516 25.3557 19.684 25.3557C19.9941 25.3557 20.2912 25.083 20.2768 24.7628C20.2625 24.4416 20.0164 24.1699 19.684 24.1699Z" fill="url(#paint1_linear)"/>
<path d="M19.684 14.9873C18.0575 14.9873 16.7342 16.3106 16.7342 17.9371C16.7342 18.2645 16.9997 18.53 17.3271 18.53C17.6545 18.53 17.92 18.2645 17.92 17.9371C17.92 16.9644 18.7114 16.1731 19.684 16.1731C20.6567 16.1731 21.448 16.9644 21.448 17.9371C21.448 18.9097 20.6567 19.7011 19.684 19.7011C19.3566 19.7011 19.0911 19.9666 19.0911 20.294V22.7121C19.0911 23.0396 19.3566 23.3051 19.684 23.3051C20.0114 23.3051 20.2769 23.0396 20.2769 22.7121V20.827C21.6202 20.5518 22.6338 19.3606 22.6338 17.9371C22.6338 16.3106 21.3106 14.9873 19.684 14.9873Z" fill="url(#paint2_linear)"/>
</g>
<rect x="0.5" y="0.5" width="39" height="39" stroke="url(#paint3_linear)"/>
<defs>
<linearGradient id="paint0_linear" x1="20.0004" y1="10" x2="20.0004" y2="30" gradientUnits="userSpaceOnUse">
<stop stop-color="white"/>
<stop offset="1" stop-color="#F8FAFC"/>
</linearGradient>
<linearGradient id="paint1_linear" x1="19.684" y1="24.1699" x2="19.684" y2="25.3557" gradientUnits="userSpaceOnUse">
<stop stop-color="white"/>
<stop offset="1" stop-color="#F8FAFC"/>
</linearGradient>
<linearGradient id="paint2_linear" x1="19.684" y1="14.9873" x2="19.684" y2="23.3051" gradientUnits="userSpaceOnUse">
<stop stop-color="white"/>
<stop offset="1" stop-color="#F8FAFC"/>
</linearGradient>
<linearGradient id="paint3_linear" x1="20" y1="0" x2="20" y2="40" gradientUnits="userSpaceOnUse">
<stop stop-color="white"/>
<stop offset="1" stop-color="#F8FAFC"/>
</linearGradient>
<clipPath id="clip0">
<rect width="20" height="20" fill="white" transform="translate(10 10)"/>
</clipPath>
</defs>
</svg>
