<svg width="16" height="16" viewBox="0 0 16 16" fill="none" xmlns="http://www.w3.org/2000/svg">
<path d="M12.7851 1.98207C11.507 0.703908 9.80761 0 8.00004 0C6.19248 0 4.49304 0.703908 3.21491 1.98207C1.93675 3.26026 1.23284 4.95963 1.23284 6.76717C1.23284 10.4238 4.69029 13.4652 6.54776 15.0992C6.80588 15.3262 7.02879 15.5223 7.20638 15.6882C7.42889 15.896 7.71448 16 8.00001 16C8.28561 16 8.57114 15.896 8.79367 15.6882C8.97126 15.5223 9.19417 15.3262 9.4523 15.0992C11.3098 13.4652 14.7672 10.4238 14.7672 6.76717C14.7672 4.95963 14.0633 3.26026 12.7851 1.98207ZM8.83323 14.3955C8.56945 14.6275 8.34167 14.8279 8.15386 15.0033C8.06757 15.0838 7.93245 15.0839 7.84614 15.0033C7.65835 14.8278 7.43054 14.6275 7.16676 14.3954C5.42051 12.8593 2.17003 9.99999 2.17003 6.7672C2.17003 3.55257 4.78532 0.937283 7.99998 0.937283C11.2146 0.937283 13.8299 3.55257 13.8299 6.7672C13.8299 9.99999 10.5795 12.8593 8.83323 14.3955Z" fill="#9FB3BC"/>
<path d="M8.00005 3.5293C6.35564 3.5293 5.01782 4.86708 5.01782 6.51149C5.01782 8.1559 6.35564 9.49369 8.00005 9.49369C9.64446 9.49369 10.9822 8.1559 10.9822 6.51149C10.9822 4.86708 9.64446 3.5293 8.00005 3.5293ZM8.00005 8.5564C6.87245 8.5564 5.95507 7.63903 5.95507 6.51146C5.95507 5.38389 6.87245 4.46652 8.00005 4.46652C9.12764 4.46652 10.045 5.38389 10.045 6.51146C10.045 7.63903 9.12764 8.5564 8.00005 8.5564Z" fill="#9FB3BC"/>
</svg>
