<svg width="30" height="30" viewBox="0 0 30 30" fill="none" xmlns="http://www.w3.org/2000/svg">
<g clip-path="url(#clip0)">
<path d="M25.6626 12.5891C25.6987 8.35946 22.0963 4.48201 17.6323 3.94583C17.5435 3.9353 17.4468 3.91927 17.3444 3.90232C17.1234 3.8657 16.8949 3.82806 16.6643 3.82806C15.7494 3.82806 15.5048 4.47073 15.4404 4.85403C15.3778 5.2267 15.4376 5.53965 15.6177 5.78459C15.9206 6.19657 16.4537 6.26971 16.8819 6.32831C17.0074 6.34564 17.1259 6.36176 17.225 6.38403C21.2357 7.28021 22.5861 8.68918 23.2461 12.6658C23.2622 12.7629 23.2695 12.8827 23.2772 13.0096C23.306 13.485 23.366 14.474 24.4293 14.474H24.4294C24.5179 14.474 24.613 14.4663 24.712 14.4512C25.7021 14.3008 25.6711 13.3968 25.6562 12.9624C25.652 12.8401 25.648 12.7244 25.6583 12.6474C25.6611 12.628 25.6625 12.6086 25.6626 12.5891Z" fill="url(#paint0_linear)"/>
<path d="M16.4047 2.39329C16.5235 2.40186 16.6359 2.41006 16.7296 2.42441C23.3155 3.43724 26.3443 6.55761 27.1836 13.1951C27.1979 13.3079 27.2001 13.4455 27.2025 13.5912C27.2108 14.1098 27.2281 15.1886 28.3866 15.2109L28.4226 15.2113C28.7859 15.2113 29.0749 15.1017 29.2817 14.8854C29.6423 14.5082 29.6172 13.9478 29.5969 13.4974C29.5919 13.3869 29.5872 13.2828 29.5884 13.1917C29.6721 6.40332 23.7961 0.24764 17.0137 0.0187267C16.9856 0.017795 16.9587 0.0192857 16.9316 0.0231056C16.9183 0.0250621 16.8936 0.0274845 16.8513 0.0274845C16.7837 0.0274845 16.7005 0.0216149 16.6123 0.0156522C16.5056 0.00838509 16.3846 0 16.262 0C15.1819 0 14.9766 0.767702 14.9503 1.22534C14.8898 2.28298 15.9129 2.35742 16.4047 2.39329Z" fill="url(#paint1_linear)"/>
<path d="M26.8658 21.7736C26.7258 21.6666 26.581 21.5559 26.4455 21.4467C25.7264 20.8681 24.9614 20.3347 24.2216 19.8188C24.068 19.7118 23.9145 19.6048 23.7615 19.4975C22.8138 18.8318 21.9618 18.5083 21.1568 18.5083C20.0726 18.5083 19.1273 19.1074 18.3471 20.2886C18.0015 20.8123 17.5821 21.067 17.0653 21.067C16.7598 21.067 16.4125 20.9798 16.0334 20.8077C12.9744 19.4205 10.7901 17.2937 9.54103 14.4863C8.93721 13.1294 9.13296 12.2424 10.1956 11.5205C10.7991 11.111 11.9223 10.3485 11.8427 8.88838C11.7526 7.23027 8.09414 2.24124 6.55268 1.67459C5.90004 1.43459 5.21432 1.43236 4.51091 1.669C2.73886 2.26472 1.46721 3.31089 0.83311 4.69425C0.220346 6.03092 0.248017 7.60043 0.913141 9.2331C2.83594 13.9535 5.53929 18.0691 8.94839 21.4654C12.2853 24.7899 16.3866 27.5132 21.1384 29.5593C21.5667 29.7436 22.0159 29.8441 22.3439 29.9174C22.4557 29.9426 22.5523 29.964 22.6226 29.9833C22.6613 29.9938 22.7012 29.9995 22.7411 29.9999L22.7787 30.0001C22.7788 30.0001 22.7787 30.0001 22.7789 30.0001C25.0138 30.0001 27.6973 27.9578 28.5214 25.6296C29.2435 23.5909 27.9252 22.5832 26.8658 21.7736Z" fill="url(#paint2_linear)"/>
<path d="M17.3932 7.78545C17.0106 7.79514 16.2143 7.81489 15.9349 8.62592C15.8042 9.00493 15.8198 9.33399 15.9815 9.604C16.2187 10.0001 16.6731 10.1215 17.0865 10.1882C18.5857 10.4287 19.3556 11.2577 19.5096 12.7969C19.5812 13.5145 20.0644 14.0157 20.6849 14.0157H20.685C20.7309 14.0157 20.7777 14.013 20.8244 14.0073C21.5707 13.9185 21.9325 13.3702 21.8998 12.3778C21.9117 11.342 21.3696 10.1662 20.4477 9.22955C19.5227 8.29005 18.4075 7.76095 17.3932 7.78545Z" fill="url(#paint3_linear)"/>
</g>
<defs>
<linearGradient id="paint0_linear" x1="20.5396" y1="3.82806" x2="20.5396" y2="14.474" gradientUnits="userSpaceOnUse">
<stop stop-color="#35BFF0"/>
<stop offset="1" stop-color="#0587D3"/>
</linearGradient>
<linearGradient id="paint1_linear" x1="22.2773" y1="0" x2="22.2773" y2="15.2113" gradientUnits="userSpaceOnUse">
<stop stop-color="#35BFF0"/>
<stop offset="1" stop-color="#0587D3"/>
</linearGradient>
<linearGradient id="paint2_linear" x1="14.5606" y1="1.49304" x2="14.5606" y2="30.0001" gradientUnits="userSpaceOnUse">
<stop stop-color="#35BFF0"/>
<stop offset="1" stop-color="#0587D3"/>
</linearGradient>
<linearGradient id="paint3_linear" x1="18.8745" y1="7.78464" x2="18.8745" y2="14.0157" gradientUnits="userSpaceOnUse">
<stop stop-color="#35BFF0"/>
<stop offset="1" stop-color="#0587D3"/>
</linearGradient>
<clipPath id="clip0">
<rect width="30" height="30" fill="white"/>
</clipPath>
</defs>
</svg>
