<svg width="16" height="16" viewBox="0 0 16 16" fill="none" xmlns="http://www.w3.org/2000/svg">
<g clip-path="url(#clip0)">
<path d="M15.5394 11.9947L13.2269 9.68114C12.9163 9.37217 12.5004 9.20193 12.056 9.20193C11.5936 9.20193 11.1569 9.38402 10.8268 9.71437L9.9266 10.6143C9.22711 10.2255 8.29741 9.6908 7.33217 8.72556C6.36805 7.76111 5.83324 6.83413 5.44246 6.13087L6.34349 5.23049C7.0134 4.5592 7.0271 3.48223 6.37414 2.82986L4.06207 0.517728C3.75237 0.207167 3.3365 0.0361328 2.89098 0.0361328C2.43884 0.0361328 2.01112 0.210211 1.68289 0.527061C1.48432 0.686975 0.487837 1.56663 0.116448 3.38076C-0.403538 5.91999 0.791184 8.36311 4.24019 11.8135C8.09302 15.6651 11.3822 15.9645 12.2985 15.9645C12.4893 15.9645 12.6044 15.9527 12.6351 15.9492C14.4319 15.7385 15.0753 14.9406 15.545 14.3579C16.1537 13.6027 16.1516 12.6091 15.5394 11.9947ZM14.7721 13.7347C14.3305 14.2824 13.9135 14.7996 12.5196 14.963C12.5188 14.9631 12.4426 14.9716 12.2985 14.9716C11.4787 14.9716 8.52517 14.6932 4.94226 11.1114C1.76165 7.9295 0.645302 5.74743 1.0891 3.57986C1.41303 1.99753 2.27304 1.32498 2.30646 1.29943L2.33611 1.27752L2.36213 1.25144C2.50569 1.10801 2.69347 1.02898 2.89091 1.02898C3.07069 1.02898 3.23695 1.09636 3.35954 1.21934L5.67213 3.532C5.93822 3.79782 5.92405 4.24513 5.64096 4.52881L4.62197 5.54694L4.60522 5.56448C4.33967 5.85697 4.37091 6.25226 4.51719 6.50967C4.93928 7.27138 5.51745 8.31459 6.62996 9.42744C7.73877 10.5362 8.78046 11.1139 9.54005 11.5352C9.6161 11.5779 9.77311 11.6496 9.96962 11.6496C10.2017 11.6496 10.4147 11.5513 10.5725 11.3723L11.5288 10.4162C11.6716 10.2734 11.8587 10.1947 12.0559 10.1947C12.2361 10.1947 12.4032 10.2623 12.5255 10.3839L14.8365 12.6959C15.1301 12.9906 15.0089 13.441 14.7721 13.7347Z" fill="#9FB3BC"/>
<path d="M9.69263 2.46815C10.5456 2.56631 11.55 3.08298 12.2513 3.78439C12.9592 4.49229 13.4771 5.50684 13.5707 6.3691C13.5983 6.62346 13.8134 6.81197 14.0636 6.81197C14.0815 6.81197 14.0996 6.81098 14.1177 6.80906C14.3903 6.77947 14.5873 6.53457 14.5577 6.262C14.4394 5.17206 13.8246 3.95371 12.9534 3.08239C12.0903 2.21921 10.8844 1.60596 9.80614 1.48186C9.5339 1.45029 9.28761 1.64594 9.25624 1.91825C9.22486 2.19055 9.42019 2.43677 9.69263 2.46815Z" fill="#9FB3BC"/>
<path d="M9.22881 4.54832C9.69015 4.60147 10.3286 4.94367 10.7469 5.36192C11.1687 5.78381 11.5116 6.42837 11.5621 6.89467C11.5897 7.1491 11.8048 7.33761 12.055 7.33761C12.0728 7.33761 12.0909 7.33662 12.1091 7.3347C12.3816 7.30511 12.5787 7.06021 12.5491 6.78764C12.4628 5.99152 11.9342 5.14528 11.4488 4.65985C10.9677 4.17872 10.1298 3.65271 9.34233 3.56196C9.06969 3.53026 8.82373 3.72598 8.79236 3.99828C8.76105 4.27065 8.95644 4.51694 9.22881 4.54832Z" fill="#9FB3BC"/>
</g>
<defs>
<clipPath id="clip0">
<rect width="16" height="16" fill="white"/>
</clipPath>
</defs>
</svg>
